Coordinates
version=1
nRows=14
nColumns=63
inDegrees=yes

Units are S.I. units (second, meters, Newtons, ...)
If the header above contains a line with 'inDegrees', this indicates whether rotational values are in degrees (yes) or radians (no).

endheader
time	pelvis_tilt	pelvis_list	pelvis_rotation	pelvis_tx	pelvis_ty	pelvis_tz	hip_flexion_r	hip_adduction_r	hip_rotation_r	knee_angle_r	knee_angle_r_beta	ankle_angle_r	subtalar_angle_r	mtp_angle_r	hip_flexion_l	hip_adduction_l	hip_rotation_l	knee_angle_l	knee_angle_l_beta	ankle_angle_l	subtalar_angle_l	mtp_angle_l	L5_S1_Flex_Ext	L5_S1_Lat_Bending	L5_S1_axial_rotation	L4_L5_Flex_Ext	L4_L5_Lat_Bending	L4_L5_axial_rotation	L3_L4_Flex_Ext	L3_L4_Lat_Bending	L3_L4_axial_rotation	L2_L3_Flex_Ext	L2_L3_Lat_Bending	L2_L3_axial_rotation	L1_L2_Flex_Ext	L1_L2_Lat_Bending	L1_L2_axial_rotation	L1_T12_Flex_Ext	L1_T12_Lat_Bending	L1_T12_axial_rotation	Abs_r3	Abs_r2	Abs_r1	Abs_t1	Abs_t2	neck_flexion	neck_bending	neck_rotation	arm_flex_r	arm_add_r	arm_rot_r	elbow_flex_r	pro_sup_r	wrist_flex_r	wrist_dev_r	arm_flex_l	arm_add_l	arm_rot_l	elbow_flex_l	pro_sup_l	wrist_flex_l	wrist_dev_l
2.135593	-1.689238	-6.790765	97.617097	0.081750	0.896210	0.595347	9.808323	-0.867617	-8.775013	12.628786	0.220414	33.912052	13.971214	0.000000	7.421267	0.819579	-13.409824	7.840396	0.136841	33.596437	9.995173	0.000000	0.177009	-0.171084	0.296891	0.328723	-0.227542	0.315447	0.290808	-0.415974	0.315447	0.202303	-0.415974	0.259780	0.164370	-0.348875	0.241224	0.101143	-0.265009	0.222668	1.264357	-1.935337	1.651220	0.000000	0.000000	12.660345	-1.314597	11.753450	15.443693	-18.097247	26.690295	57.582306	86.842611	-9.103527	3.824159	7.610819	-19.409985	13.947501	63.950704	88.654383	-2.421664	17.481822
2.152542	-1.528925	-6.586259	97.640159	0.081639	0.896418	0.593972	9.442985	-0.633594	-8.638932	12.353110	0.215602	33.879450	13.797584	0.000000	7.010393	0.683727	-13.019630	7.570753	0.132135	33.520744	9.632599	0.000000	0.179587	-0.154812	0.284466	0.333510	-0.205900	0.302246	0.295043	-0.376409	0.302246	0.205249	-0.376409	0.248908	0.166764	-0.315692	0.231129	0.102616	-0.239803	0.213350	1.282769	-1.751261	1.582117	0.000000	0.000000	11.981667	-1.438911	11.638694	15.434745	-18.159092	27.250279	57.285655	86.938188	-9.196826	3.662979	7.340230	-19.358823	13.979924	63.846879	88.675427	-2.537556	17.016734
2.169492	-1.413341	-6.373759	97.585101	0.081603	0.896683	0.592561	9.071598	-0.443501	-8.500878	12.089334	0.210999	33.844868	13.705890	0.000000	6.572797	0.587524	-12.714462	7.274058	0.126956	33.432648	9.320222	0.000000	0.180739	-0.143152	0.283833	0.335651	-0.190392	0.301573	0.296936	-0.348060	0.301573	0.206567	-0.348060	0.248354	0.167834	-0.291916	0.230614	0.103274	-0.221743	0.212875	1.291002	-1.619365	1.578595	0.000000	0.000000	11.301627	-1.537812	11.513913	15.443484	-18.193665	27.822704	56.953526	87.043836	-9.224475	3.551308	7.078571	-19.333641	14.008849	63.720053	88.701068	-2.458192	16.761727
2.186441	-1.339080	-6.168378	97.447815	0.081642	0.896992	0.591156	8.711405	-0.288468	-8.285821	11.833812	0.206539	33.781770	13.609978	0.000000	6.116679	0.535724	-12.411115	6.927153	0.120902	33.298243	8.949072	0.000000	0.181659	-0.135851	0.298767	0.337359	-0.180682	0.317440	0.298447	-0.330308	0.317440	0.207618	-0.330308	0.261422	0.168688	-0.277027	0.242749	0.103800	-0.210433	0.224076	1.297571	-1.536771	1.661655	0.000000	0.000000	10.649343	-1.610364	11.360036	15.462826	-18.209333	28.381872	56.606383	87.060734	-9.197455	3.517476	6.845421	-19.318437	14.076364	63.522128	88.726433	-2.337005	16.529341
2.203390	-1.293952	-5.977144	97.250313	0.081730	0.897317	0.589826	8.379121	-0.162292	-8.021467	11.601737	0.202489	33.691339	13.521661	0.000000	5.679246	0.504404	-12.252930	6.591446	0.115042	33.172496	8.705574	0.000000	0.180901	-0.131513	0.327773	0.335952	-0.174913	0.348258	0.297203	-0.319761	0.348258	0.206752	-0.319761	0.286801	0.167985	-0.268182	0.266315	0.103367	-0.203714	0.245829	1.292160	-1.487704	1.822972	0.000000	0.000000	10.088589	-1.676918	11.165942	15.467510	-18.211120	28.854202	56.279379	87.032690	-9.131897	3.515334	6.663982	-19.310406	14.181452	63.283506	88.748569	-2.152194	16.443489
2.220339	-1.281966	-5.811054	96.994190	0.081882	0.897637	0.588609	8.088141	-0.069207	-7.708806	11.390647	0.198804	33.574684	13.450743	0.000000	5.271962	0.498005	-12.243683	6.263490	0.109319	33.047801	8.595316	0.000000	0.178911	-0.131486	0.371541	0.332256	-0.174877	0.394762	0.293934	-0.319696	0.394762	0.204478	-0.319696	0.325098	0.166137	-0.268127	0.301877	0.102230	-0.203672	0.278655	1.277947	-1.487401	2.066397	0.000000	0.000000	9.657556	-1.706277	10.916044	15.453524	-18.194417	29.207407	55.984453	86.946731	-9.020721	3.579158	6.535782	-19.302201	14.298264	63.012853	88.762130	-1.907782	16.477379
2.237288	-1.282289	-5.675390	96.705273	0.082046	0.897923	0.587547	7.850289	0.006901	-7.372556	11.208756	0.195630	33.435209	13.387785	0.000000	4.917260	0.498362	-12.348881	5.966607	0.104137	32.940220	8.590842	0.000000	0.175713	-0.132814	0.425236	0.326318	-0.176643	0.451813	0.288680	-0.322925	0.451813	0.200823	-0.322925	0.372081	0.163168	-0.270835	0.345504	0.100403	-0.205730	0.318927	1.255104	-1.502423	2.365034	0.000000	0.000000	9.372023	-1.721806	10.628354	15.417083	-18.179012	29.421917	55.745695	86.827313	-8.858785	3.671922	6.449584	-19.268670	14.385498	62.740643	88.772946	-1.623302	16.635263
2.254237	-1.294611	-5.583649	96.426609	0.082196	0.898146	0.586694	7.683481	0.058702	-7.056373	11.065271	0.193125	33.287850	13.329402	0.000000	4.651536	0.506145	-12.532966	5.734116	0.100079	32.862687	8.684661	0.000000	0.172425	-0.136057	0.477622	0.320211	-0.180956	0.507474	0.283277	-0.330808	0.507474	0.197065	-0.330808	0.417920	0.160114	-0.277447	0.388068	0.098524	-0.210752	0.358217	1.231615	-1.539101	2.656392	0.000000	0.000000	9.249889	-1.709977	10.333187	15.390814	-18.158808	29.556947	55.543271	86.710900	-8.741320	3.725459	6.392454	-19.227761	14.439741	62.492914	88.774839	-1.378030	16.785458
2.271186	-1.319899	-5.529936	96.135241	0.082364	0.898306	0.586044	7.576397	0.095449	-6.714124	10.939574	0.190932	33.122803	13.242921	0.000000	4.444763	0.527489	-12.775338	5.514845	0.096252	32.802713	8.834877	0.000000	0.168838	-0.141931	0.539920	0.313549	-0.188768	0.573665	0.277384	-0.345090	0.573665	0.192965	-0.345090	0.472430	0.156783	-0.289425	0.438685	0.096474	-0.219851	0.404940	1.205991	-1.605549	3.002875	0.000000	0.000000	9.274825	-1.682460	9.939091	15.330844	-18.128243	29.490821	55.401155	86.571047	-8.579877	3.792111	6.412197	-19.159327	14.501353	62.260352	88.772402	-1.180593	16.960279
2.288136	-1.347888	-5.526663	95.889490	0.082484	0.898362	0.585696	7.562049	0.110598	-6.432883	10.875486	0.189813	32.974743	13.145835	0.000000	4.353758	0.549459	-13.055706	5.382402	0.093941	32.803134	9.063782	0.000000	0.164996	-0.148153	0.592004	0.306414	-0.197043	0.629004	0.271072	-0.360218	0.629004	0.188574	-0.360218	0.518004	0.153215	-0.302113	0.481003	0.094279	-0.229489	0.444003	1.178550	-1.675933	3.292549	0.000000	0.000000	9.452359	-1.650528	9.590865	15.322763	-18.100110	29.399473	55.294149	86.432624	-8.517102	3.775820	6.478442	-19.079134	14.526545	62.084696	88.760465	-1.073548	17.038930
2.305085	-1.387872	-5.585166	95.670114	0.082615	0.898291	0.585613	7.640520	0.107457	-6.147317	10.847652	0.189327	32.845049	12.983635	0.000000	4.371042	0.582480	-13.363358	5.303530	0.092564	32.848911	9.344957	0.000000	0.163460	-0.157597	0.639116	0.303562	-0.209604	0.679060	0.268549	-0.383182	0.679060	0.186819	-0.383182	0.559226	0.151789	-0.321373	0.519281	0.093401	-0.244118	0.479337	1.167581	-1.782773	3.554569	0.000000	0.000000	9.768342	-1.616381	9.189791	15.331630	-18.036348	29.184141	55.231230	86.375419	-8.511270	3.739178	6.595623	-18.980852	14.491867	61.998290	88.744260	-1.017333	17.176460
2.322034	-1.420966	-5.701658	95.524845	0.082657	0.898089	0.585873	7.823663	0.084811	-5.965087	10.891631	0.190095	32.760735	12.819938	0.000000	4.520148	0.610331	-13.674837	5.319043	0.092835	32.958539	9.691216	0.000000	0.162547	-0.165688	0.667200	0.301866	-0.220365	0.708900	0.267049	-0.402853	0.708900	0.185775	-0.402853	0.583800	0.150941	-0.337871	0.542100	0.092879	-0.256650	0.500400	1.161058	-1.874294	3.710769	0.000000	0.000000	10.201374	-1.590805	8.896931	15.437051	-17.970798	29.011345	55.190292	86.322342	-8.643495	3.622921	6.767068	-18.867256	14.417716	61.967497	88.719147	-1.038029	17.181923
2.338983	-1.445007	-5.892169	95.458204	0.082633	0.897735	0.586478	8.118842	0.050439	-5.856007	10.982276	0.191677	32.706718	12.612172	0.000000	4.808976	0.634473	-13.965124	5.409034	0.094405	33.105633	10.068255	0.000000	0.165053	-0.173663	0.672094	0.306520	-0.230972	0.714100	0.271166	-0.422245	0.714100	0.188639	-0.422245	0.588082	0.153268	-0.354135	0.546077	0.094311	-0.269005	0.504071	1.178957	-1.964516	3.737986	0.000000	0.000000	10.729214	-1.572416	8.657661	15.646625	-17.868401	28.881555	55.145918	86.391021	-8.956282	3.454216	6.959886	-18.728499	14.223718	62.040262	88.692351	-1.082363	17.248160
2.355932	-1.449683	-6.136530	95.475135	0.082506	0.897265	0.587424	8.503465	0.009303	-5.866742	11.116349	0.194017	32.687760	12.419157	0.000000	5.216797	0.645636	-14.232758	5.574679	0.097296	33.278856	10.458490	0.000000	0.168294	-0.178668	0.654214	0.312540	-0.237629	0.695102	0.276491	-0.434414	0.695102	0.192344	-0.434414	0.572437	0.156278	-0.364341	0.531549	0.096163	-0.276757	0.490660	1.202110	-2.021133	3.638541	0.000000	0.000000	11.328579	-1.568310	8.530587	15.985650	-17.757114	28.858907	55.078527	86.494472	-9.412637	3.217345	7.212162	-18.579778	14.014344	62.128193	88.655726	-1.164378	17.183236
